<?xml version="1.0" encoding="utf-8"?>
<!-- Generator: Adobe Illustrator 19.2.1, SVG Export Plug-In . SVG Version: 6.00 Build 0)  -->
<svg version="1.1" id="checked.svg" xmlns="http://www.w3.org/2000/svg" xmlns:xlink="http://www.w3.org/1999/xlink" x="0px"
	 y="0px" viewBox="0 0 16 15" style="enable-background:new 0 0 16 15;" xml:space="preserve">
<style type="text/css">
	.st0{fill:#D1D3D4;}
	.st1{fill:#2D52A2;}
</style>
<g>
	<path class="st0" d="M3,0h9c1.7,0,3,1.3,3,3v9c0,1.7-1.3,3-3,3H3c-1.7,0-3-1.3-3-3V3C0,1.3,1.3,0,3,0z"/>
	<path class="st1" d="M15.3,4.3L9.7,9.9L8.6,11c-0.1,0.1-0.3,0.2-0.5,0.2S7.7,11.1,7.5,11l-1-1.1L3.7,7.1C3.5,7,3.4,6.8,3.4,6.6
		S3.5,6.2,3.7,6l1-1C4.8,4.9,5,4.8,5.2,4.8s0.4,0,0.6,0.2l2.3,2.3l5.1-5.1C13.3,2.1,13.5,2,13.7,2s0.4,0.1,0.5,0.2l1.1,1.1
		c0.1,0.1,0.2,0.3,0.2,0.5C15.5,4,15.5,4.1,15.3,4.3z"/>
</g>
</svg>
